Coordinates
version=1
nRows=11
nColumns=40
inDegrees=yes

Units are S.I. units (second, meters, Newtons, ...)
Angles are in degrees.

endheader
time	pelvis_tilt	pelvis_list	pelvis_rotation	pelvis_tx	pelvis_ty	pelvis_tz	hip_flexion_r	hip_adduction_r	hip_rotation_r	knee_angle_r	knee_angle_r_beta	ankle_angle_r	subtalar_angle_r	mtp_angle_r	hip_flexion_l	hip_adduction_l	hip_rotation_l	knee_angle_l	knee_angle_l_beta	ankle_angle_l	subtalar_angle_l	mtp_angle_l	lumbar_extension	lumbar_bending	lumbar_rotation	arm_flex_r	arm_add_r	arm_rot_r	elbow_flex_r	pro_sup_r	wrist_flex_r	wrist_dev_r	arm_flex_l	arm_add_l	arm_rot_l	elbow_flex_l	pro_sup_l	wrist_flex_l	wrist_dev_l
      0.00000000	     -0.88392025	     -0.17964414	     -0.38018568	     -0.82729758	      0.89723028	      1.06570051	     22.97385009	     -6.73044213	    -11.43490657	    -64.69587524	     -1.12915604	      1.40512299	    -17.48277799	     21.25789000	     12.87163342	     -1.32294976	     10.64721872	    -29.68761318	     -0.51814660	     12.66991810	     10.24710113	     -0.37287292	     -6.36082826	     -2.72377462	     -7.36238641	     -3.55764154	     -7.03805179	    -14.66642156	     22.49979195	     89.95437384	      0.00000000	      0.00000000	      6.96428676	     10.80480927	     12.99104668	     33.85074258	     89.95437384	      0.00000000	      0.00000000
      0.01000000	     -1.06364927	     -0.12036603	     -0.08001704	     -0.81916513	      0.89707939	      1.06539814	     24.09158579	     -6.77620824	    -11.53049529	    -63.22624015	     -1.10350606	      1.86227643	    -17.43392880	     20.93793144	     12.40522117	     -1.38575880	     10.68904009	    -29.55103854	     -0.51576292	     12.82984037	      9.99608748	     -0.39529962	     -6.20782679	     -2.74637511	     -7.56369376	     -3.94515798	     -6.84911394	    -14.58152979	     22.30406336	     89.95437384	      0.00000000	      0.00000000	      7.77956331	     10.89743752	     12.95992463	     34.60902291	     89.95437384	      0.00000000	      0.00000000
      0.02000000	     -0.77564739	     -0.38243975	      0.43230944	     -0.81078224	      0.89773353	      1.06504453	     24.39569275	     -6.41083040	    -11.82707788	    -61.26845015	     -1.06933618	      2.62222394	    -17.64862674	     20.93605812	     11.27582064	     -1.18842385	     10.20805558	    -29.14295869	     -0.50864058	     13.25171925	      9.51724836	     -0.48370562	     -6.61539041	     -2.39976814	     -8.10336804	     -4.03458013	     -6.66900281	    -14.69159097	     21.85971071	     89.95437384	      0.00000000	      0.00000000	      8.39628491	     11.07960523	     12.89779559	     35.67130768	     89.95437384	      0.00000000	      0.00000000
      0.03000000	     -0.62511051	     -0.47613322	      0.72857067	     -0.80229474	      0.89811602	      1.06486046	     24.83830781	     -6.28636198	    -12.06753702	    -59.18829396	     -1.03303061	      3.43470347	    -17.60568794	     20.90259519	     10.27941975	     -1.04705007	     10.26984445	    -28.73307025	     -0.50148668	     13.51372637	      8.83405611	     -0.62236123	     -6.82818344	     -2.23408048	     -8.33615504	     -4.32147807	     -6.49866467	    -14.75742570	     21.68649581	     89.95437384	      0.00000000	      0.00000000	      9.14518872	     11.15638751	     12.91529972	     36.43815155	     89.95437384	      0.00000000	      0.00000000
      0.04000000	     -0.76524834	     -0.46816145	      1.01084079	     -0.79409858	      0.89786910	      1.06483728	     25.62096311	     -6.22798775	    -12.14374696	    -56.99577760	     -0.99476398	      3.94198319	    -17.55973245	     20.72791386	      9.68428435	     -1.03728658	     10.24316312	    -28.40442158	     -0.49575068	     13.71202625	      8.40053404	     -0.73013763	     -6.72538495	     -2.20887531	     -8.56362817	     -4.62917173	     -6.35335398	    -14.76905522	     21.52559335	     89.95437384	      0.00000000	      0.00000000	      9.77336560	     11.33183264	     12.74726500	     37.30857625	     89.95437384	      0.00000000	      0.00000000
      0.05000000	     -1.08534071	     -0.26957219	      1.24839212	     -0.78601197	      0.89716073	      1.06463862	     26.62433740	     -6.52004787	    -12.36610707	    -54.74504713	     -0.95548132	      4.17737018	    -17.20518876	     20.41347134	      9.38730738	     -1.20127546	     10.49202047	    -28.29779654	     -0.49388972	     13.81113265	      8.14858966	     -0.76746389	     -6.41801257	     -2.37449193	     -8.71951743	     -5.05934475	     -6.22500558	    -14.72026007	     21.59170943	     89.95437384	      0.00000000	      0.00000000	     10.43466075	     11.44796787	     12.65311701	     38.05666135	     89.95437384	      0.00000000	      0.00000000
      0.06000000	     -0.42822054	     -0.75630617	      1.66680162	     -0.77712755	      0.89831935	      1.06491809	     25.95466717	     -5.80532721	    -12.67902035	    -51.53249926	     -0.89941178	      4.32638435	    -17.24558079	     20.77290178	      7.72596417	     -0.53431587	     10.43769948	    -27.69665069	     -0.48339775	     14.01040184	      7.01773352	     -1.11912643	     -7.20754944	     -1.77346133	     -9.09629936	     -5.16875831	     -6.07057998	    -14.98989312	     21.43149881	     89.95437384	      0.00000000	      0.00000000	     11.05130506	     11.60797828	     12.56434267	     38.94220148	     89.95437384	      0.00000000	      0.00000000
      0.07000000	     -0.49555004	     -0.80505414	      1.97261968	     -0.76875476	      0.89799745	      1.06502850	     26.33689176	     -5.75154970	    -13.03661197	    -48.62791470	     -0.84871722	      4.49090420	    -17.02939344	     20.77936882	      7.05767103	     -0.40106034	     10.49919101	    -27.39170802	     -0.47807549	     14.17956666	      6.42468561	     -1.34356132	     -7.17499211	     -1.66447835	     -9.37824779	     -5.39801329	     -5.93017245	    -15.04052753	     21.31836007	     89.95437384	      0.00000000	      0.00000000	     11.60549466	     11.81700468	     12.36256131	     39.67997458	     89.95437384	      0.00000000	      0.00000000
      0.08000000	     -0.93530060	     -0.45064317	      2.14493121	     -0.76068850	      0.89684948	      1.06505692	     27.27755559	     -6.19436247	    -13.26072974	    -46.00346888	     -0.80291200	      4.61171944	    -16.61631100	     20.51933427	      6.88185285	     -0.72471403	     10.77580805	    -27.30433290	     -0.47655051	     14.28974229	      6.19020588	     -1.38523825	     -6.73620623	     -2.02171026	     -9.49308095	     -5.79651472	     -5.80735134	    -14.99656579	     21.43784302	     89.95437384	      0.00000000	      0.00000000	     12.16886474	     11.96098070	     12.21954137	     40.37660659	     89.95437384	      0.00000000	      0.00000000
      0.09000000	     -0.83197542	     -0.74809752	      2.53731766	     -0.75224268	      0.89683799	      1.06542138	     27.11818722	     -5.74861102	    -13.50249203	    -42.53988933	     -0.74246113	      4.20582735	    -16.22517461	     20.55232866	      5.95310522	     -0.34916605	     10.34382305	    -26.89111809	     -0.46933855	     14.59477183	      5.62277341	     -1.57665962	     -6.91401279	     -1.63616205	     -9.87462064	     -5.89102026	     -5.68863672	    -15.15425173	     21.28171981	     89.95437384	      0.00000000	      0.00000000	     12.67351003	     12.21839030	     11.89499956	     41.12178786	     89.95437384	      0.00000000	      0.00000000
      0.10000000	     -0.89768340	     -0.74163346	      2.83313797	     -0.74390078	      0.89631270	      1.06573701	     27.27317162	     -5.74165076	    -13.87585918	    -39.33348779	     -0.68649887	      4.13736400	    -15.62135293	     20.39137414	      5.31277402	     -0.22551411	     10.47878850	    -26.66552130	     -0.46540114	     14.70608722	      5.14598491	     -1.76109867	     -6.89460718	     -1.59437809	    -10.12475735	     -6.13518033	     -5.55171030	    -15.28156665	     21.35001742	     89.95437384	      0.00000000	      0.00000000	     13.16437247	     12.44172886	     11.57638921	     41.78029613	     89.95437384	      0.00000000	      0.00000000
